<svg width="44" height="45" viewBox="0 0 44 45" fill="none" xmlns="http://www.w3.org/2000/svg">
<rect y="0.0444336" width="44" height="44" rx="5" fill="#FFF4F2"/>
<g clip-path="url(#clip0_1_4009)">
<path d="M22.0061 28.2789C22.0061 28.6313 21.8026 28.9514 21.484 29.1008C21.3608 29.159 21.2288 29.1872 21.0977 29.1872C20.89 29.1872 20.6843 29.1158 20.5181 28.978L15.5529 24.8636H12.9084C12.4068 24.864 12.0001 24.4571 12.0001 23.9556V20.337C12.0001 19.8353 12.4068 19.4286 12.9084 19.4286H15.5531L20.5184 15.3141C20.7896 15.0893 21.1658 15.0413 21.4842 15.1918C21.8026 15.3412 22.0064 15.6615 22.0064 16.0136L22.0061 28.2789ZM25.4965 26.8597C25.4744 26.8612 25.4531 26.8621 25.4312 26.8621C25.1913 26.8621 24.96 26.7673 24.7891 26.5962L24.6676 26.4743C24.3491 26.1564 24.3117 25.6527 24.5799 25.2911C25.2601 24.3741 25.6191 23.287 25.6191 22.1466C25.6191 20.92 25.2115 19.7695 24.4402 18.8194C24.1466 18.4582 24.1736 17.9337 24.5028 17.6048L24.624 17.4834C24.8054 17.3019 25.0486 17.203 25.3117 17.2187C25.5679 17.2316 25.8072 17.3522 25.9697 17.5509C27.0396 18.86 27.6047 20.4495 27.6047 22.1468C27.6047 23.7277 27.1049 25.2324 26.1591 26.4977C26.0011 26.7086 25.7594 26.841 25.4965 26.8597ZM29.2516 29.6666C29.0873 29.8607 28.8498 29.9772 28.5955 29.9879C28.583 29.9884 28.5703 29.9888 28.5574 29.9888C28.3169 29.9888 28.086 29.8938 27.9151 29.7229L27.7958 29.6036C27.4624 29.2704 27.4398 28.7375 27.7429 28.3768C29.2077 26.6347 30.0147 24.4222 30.0147 22.1466C30.0147 19.7796 29.1507 17.501 27.5826 15.7305C27.2646 15.3711 27.2808 14.827 27.6191 14.4874L27.7382 14.3681C27.9149 14.1905 28.1445 14.0927 28.4078 14.1011C28.6578 14.1082 28.8943 14.2187 29.0605 14.4057C30.956 16.5399 32.0001 19.2893 32.0001 22.1466C32.0006 24.8958 31.0244 27.5665 29.2516 29.6666Z" fill="#FF6652"/>
</g>
<defs>
<clipPath id="clip0_1_4009">
<rect width="20" height="20" fill="white" transform="translate(12.0001 12.0444)"/>
</clipPath>
</defs>
</svg>
