<svg width="44" height="45" viewBox="0 0 44 45" fill="none" xmlns="http://www.w3.org/2000/svg">
<rect y="0.0444336" width="44" height="44" rx="5" fill="#F8F2FF"/>
<g clip-path="url(#clip0_1_3996)">
<path d="M23.1372 17.986C22.6907 18.4315 21.9671 18.4315 21.5207 17.986C21.0743 17.5405 21.0743 16.8182 21.5207 16.3727C21.9671 15.9272 22.6907 15.9272 23.1372 16.3727C23.5835 16.8182 23.5835 17.5405 23.1372 17.986Z" fill="#9C4DF4"/>
<path d="M24.6987 19.7145C24.5595 19.7145 24.4202 19.6614 24.3142 19.555C24.1021 19.3427 24.1026 18.9986 24.3149 18.7867C24.7451 18.3573 24.982 17.7864 24.982 17.1793C24.982 16.5722 24.7451 16.0013 24.3149 15.5719C24.1026 15.3598 24.1021 15.016 24.3142 14.8035C24.5261 14.5912 24.8701 14.5908 25.0824 14.8028C25.7184 15.4376 26.0686 16.2815 26.0686 17.1793C26.0686 18.077 25.7184 18.9211 25.0824 19.5558C24.9764 19.6617 24.8375 19.7145 24.6987 19.7145Z" fill="#9C4DF4"/>
<path d="M25.9275 21.3139C25.7882 21.3139 25.649 21.2607 25.5429 21.1544C25.3309 20.942 25.3313 20.5981 25.5436 20.3861C26.4019 19.5294 26.8748 18.3906 26.8748 17.1792C26.8748 15.9678 26.4019 14.8289 25.5436 13.9723C25.3313 13.7602 25.3309 13.4164 25.5429 13.2039C25.755 12.9916 26.0989 12.9912 26.3112 13.2032C27.3752 14.2652 27.9613 15.6772 27.9612 17.1792C27.9612 18.6811 27.3752 20.0933 26.3112 21.1553C26.2051 21.261 26.0663 21.3139 25.9275 21.3139Z" fill="#9C4DF4"/>
<path d="M19.9565 19.7141C19.8177 19.7141 19.6789 19.6612 19.5727 19.5554C18.9367 18.9206 18.5865 18.0766 18.5865 17.1789C18.5865 16.281 18.9367 15.4371 19.5727 14.8024C19.785 14.5904 20.129 14.5906 20.3409 14.8031C20.553 15.0154 20.5526 15.3594 20.3402 15.5714C19.91 16.0009 19.6731 16.5717 19.6731 17.1789C19.6731 17.786 19.91 18.3569 20.3402 18.7863C20.5526 18.9982 20.553 19.3422 20.3409 19.5545C20.2349 19.6608 20.0957 19.7141 19.9565 19.7141Z" fill="#9C4DF4"/>
<path d="M18.7277 21.3144C18.5887 21.3144 18.4499 21.2616 18.3439 21.1557C17.2798 20.0937 16.6938 18.6817 16.6938 17.1797C16.6938 15.6776 17.2798 14.2656 18.3439 13.2036C18.5562 12.9917 18.9002 12.992 19.1121 13.2045C19.3241 13.4168 19.3237 13.7606 19.1114 13.9727C18.2531 14.8293 17.7803 15.9682 17.7803 17.1796C17.7803 18.391 18.2531 19.53 19.1114 20.3866C19.3237 20.5987 19.3241 20.9425 19.1121 21.155C19.0061 21.2613 18.8668 21.3144 18.7277 21.3144Z" fill="#9C4DF4"/>
<path d="M29.4877 22.2529H15.1674C14.4656 22.2529 13.8966 22.8219 13.8966 23.5236V29.7733C13.8966 30.4752 14.4656 31.0442 15.1674 31.0442H29.4875C30.1894 31.0442 30.7584 30.4752 30.7584 29.7733V23.5236C30.7584 22.8219 30.1894 22.2529 29.4877 22.2529ZM18.0757 29.4137H16.0741C15.7742 29.4137 15.531 29.1705 15.531 28.8704V24.4267C15.531 24.1268 15.7742 23.8834 16.0741 23.8834C16.3742 23.8834 16.6174 24.1266 16.6174 24.4267V28.3271H18.0757C18.3757 28.3271 18.6189 28.5703 18.6189 28.8704C18.6189 29.1705 18.3757 29.4137 18.0757 29.4137ZM20.302 28.8704C20.302 29.1705 20.0588 29.4137 19.7588 29.4137C19.4587 29.4137 19.2155 29.1705 19.2155 28.8704V24.4267C19.2155 24.1268 19.4587 23.8834 19.7588 23.8834C20.0588 23.8834 20.302 24.1266 20.302 24.4267V28.8704ZM24.8729 24.5838L23.5313 29.0274C23.5312 29.0278 23.531 29.0282 23.5309 29.0286C23.3852 29.5259 22.6424 29.5136 22.4916 29.0286C22.4915 29.0282 22.4913 29.0278 22.4912 29.0274L21.1496 24.5838C21.063 24.2965 21.2254 23.9934 21.5127 23.9066C21.7997 23.82 22.1031 23.9824 22.1898 24.2697L23.0113 26.9906L23.8328 24.2697C23.9195 23.9824 24.2226 23.8199 24.5099 23.9066C24.7971 23.9934 24.9597 24.2965 24.8729 24.5838ZM28.2151 25.8255C28.5151 25.8255 28.7583 26.0687 28.7583 26.3688C28.7583 26.6687 28.5151 26.9121 28.2151 26.9121H26.6734V28.3271H28.5077C28.8078 28.3271 29.051 28.5703 29.051 28.8704C29.051 29.1705 28.8078 29.4137 28.5077 29.4137H26.1301C25.8301 29.4137 25.5869 29.1705 25.5869 28.8704V24.4267C25.5869 24.1268 25.8301 23.8834 26.1301 23.8834H28.5809C28.8808 23.8834 29.1242 24.1266 29.1242 24.4267C29.1242 24.7268 28.8808 24.97 28.5809 24.97H26.6733V25.8255H28.2151Z" fill="#9C4DF4"/>
</g>
<defs>
<clipPath id="clip0_1_3996">
<rect width="18" height="18" fill="white" transform="translate(13.334 13.0444)"/>
</clipPath>
</defs>
</svg>
