<svg width="99" height="28" viewBox="0 0 99 28" fill="none" xmlns="http://www.w3.org/2000/svg">
<path d="M47.112 7.248V4.512H34.704V21H47.112V18.264H37.704V13.968H46.224V11.232H37.704V7.248H47.112ZM59.3213 4.224V10.512C58.3373 9.12 56.8493 8.304 55.0253 8.304C51.7373 8.304 49.3373 10.992 49.3373 14.784C49.3373 18.6 51.7373 21.288 55.0253 21.288C56.8493 21.288 58.3373 20.472 59.3213 19.08V21H62.2493V4.224H59.3213ZM55.8173 18.792C53.7293 18.792 52.2413 17.112 52.2413 14.784C52.2413 12.456 53.7293 10.8 55.8173 10.8C57.8813 10.8 59.3213 12.456 59.3213 14.784C59.3213 17.112 57.8813 18.792 55.8173 18.792ZM73.9455 8.592V16.44C73.7535 17.76 72.4815 18.792 70.9455 18.792C69.4095 18.792 68.3295 17.592 68.3295 15.912V8.592H65.4975V16.488C65.4975 19.296 67.3935 21.288 70.1055 21.288C71.7375 21.288 73.1775 20.496 73.9455 19.344V21H76.8735V8.592H73.9455ZM84.2522 21H87.0122L92.2682 8.592H89.1482L85.6202 17.616L82.0202 8.592H78.9242L84.2522 21ZM95.7913 6.72C96.7033 6.72 97.4473 5.928 97.4473 5.04C97.4473 4.152 96.7033 3.384 95.7913 3.384C94.8553 3.384 94.1113 4.152 94.1113 5.04C94.1113 5.928 94.8553 6.72 95.7913 6.72ZM94.3033 21H97.2313V8.592H94.3033V21Z" fill="#0A033C"/>
<rect width="28" height="28" rx="3" fill="#FF6652"/>
<g clip-path="url(#clip0_1_5128)">
<path d="M8.21558 7.52734C8.21514 7.52734 8.21464 7.52734 8.2142 7.52734C8.05972 7.52734 7.91443 7.58756 7.80471 7.697C7.69379 7.80765 7.63269 7.95498 7.63269 8.11183V16.876C7.63269 17.1974 7.89518 17.4595 8.21789 17.4603C9.57835 17.4636 11.8577 17.7471 13.4301 19.3926V10.2206C13.4301 10.1117 13.4022 10.0094 13.3497 9.92467C12.0592 7.84631 9.57912 7.53053 8.21558 7.52734Z" fill="white"/>
<path d="M20.1348 16.8761V8.11183C20.1348 7.95498 20.0737 7.80765 19.9628 7.697C19.8531 7.58756 19.7077 7.52734 19.5534 7.52734C19.5529 7.52734 19.5524 7.52734 19.5519 7.52734C18.1885 7.53059 15.7084 7.84637 14.4178 9.92472C14.3653 10.0094 14.3375 10.1118 14.3375 10.2207V19.3926C15.9099 17.7472 18.1892 17.4636 19.5497 17.4604C19.8723 17.4595 20.1348 17.1974 20.1348 16.8761Z" fill="white"/>
<path d="M21.4661 9.54883H21.0423V16.8764C21.0423 17.6969 20.3737 18.3661 19.5519 18.3681C18.3979 18.3708 16.4952 18.5965 15.1477 19.8719C17.4783 19.3012 19.9351 19.6722 21.3353 19.9913C21.5101 20.0311 21.6907 19.9899 21.8308 19.8783C21.9704 19.7669 22.0505 19.6005 22.0505 19.4218V10.1332C22.0505 9.81099 21.7883 9.54883 21.4661 9.54883Z" fill="white"/>
<path d="M6.72532 16.8764V9.54883H6.30154C5.97938 9.54883 5.71716 9.81099 5.71716 10.1332V19.4216C5.71716 19.6004 5.79724 19.7668 5.93681 19.8781C6.07677 19.9897 6.25726 20.031 6.43237 19.9911C7.83253 19.672 10.2894 19.3011 12.6199 19.8717C11.2724 18.5964 9.36968 18.3708 8.21573 18.368C7.39395 18.3661 6.72532 17.6969 6.72532 16.8764Z" fill="white"/>
</g>
<defs>
<clipPath id="clip0_1_5128">
<rect width="16.3333" height="16.3333" fill="white" transform="translate(5.71716 5.59961)"/>
</clipPath>
</defs>
</svg>
